<?xml version="1.0" encoding="iso-8859-1"?>
<!-- Uploaded to: SVG Repo, www.svgrepo.com, Generator: SVG Repo Mixer Tools -->
<svg height="800px" width="800px" version="1.1" id="Layer_1" xmlns="http://www.w3.org/2000/svg" xmlns:xlink="http://www.w3.org/1999/xlink" 
	 viewBox="0 0 473.931 473.931" xml:space="preserve">
<circle style="fill:#357180;" cx="236.966" cy="236.966" r="236.966"/>
<path style="fill:#6CC077;" d="M197.546,96.657h-91.015c-7.293,0-13.208,5.908-13.208,13.208v92.852
	c0,7.285,5.916,13.212,13.208,13.212h91.015c7.285,0,13.208-5.927,13.208-13.212v-92.852
	C210.755,102.565,204.831,96.657,197.546,96.657z"/>
<polygon style="fill:#FFFFFF;" points="189.21,162.624 158.576,162.624 158.576,193.505 145.521,193.505 145.521,162.624 
	114.865,162.624 114.865,149.723 145.521,149.723 145.521,119.089 158.576,119.089 158.576,149.723 189.21,149.723 "/>
<path style="fill:#E84849;" d="M359.351,96.59h-91.003c-7.289,0-13.212,5.927-13.212,13.223v92.837
	c0,7.315,5.923,13.223,13.212,13.223h91.003c7.304,0,13.22-5.908,13.22-13.223v-92.837C372.571,102.517,366.655,96.59,359.351,96.59
	z"/>
<polygon style="fill:#FFFFFF;" points="351.018,162.681 320.384,162.681 307.333,162.681 276.684,162.681 276.684,149.786 
	307.333,149.786 320.384,149.786 351.018,149.786 "/>
<path style="fill:#9F77AA;" d="M197.195,263.091h-91.003c-7.304,0-13.22,5.916-13.22,13.212v92.856c0,7.293,5.916,13.22,13.22,13.22
	h91.003c7.289,0,13.212-5.927,13.212-13.22v-92.852C210.407,269.006,204.483,263.091,197.195,263.091z"/>
<polygon style="fill:#FFFFFF;" points="182.605,344.362 173.475,353.488 151.822,331.831 129.993,353.664 120.769,344.436 
	142.591,322.6 120.93,300.942 130.052,291.824 151.721,313.477 173.374,291.824 182.617,301.055 160.948,322.716 "/>
<path style="fill:#E79E2D;" d="M359.351,262.137h-91.003c-7.289,0-13.212,5.912-13.212,13.208v92.852
	c0,7.3,5.923,13.208,13.212,13.208h91.003c7.304,0,13.22-5.908,13.22-13.208v-92.848
	C372.571,268.052,366.655,262.137,359.351,262.137z"/>
<g>
	<polygon style="fill:#FFFFFF;" points="351.018,341.585 320.384,341.585 307.333,341.585 276.684,341.585 276.684,328.684 
		307.333,328.684 320.384,328.684 351.018,328.684 	"/>
	<polygon style="fill:#FFFFFF;" points="351.018,314.85 320.384,314.85 307.333,314.85 276.684,314.85 276.684,301.956 
		307.333,301.956 320.384,301.956 351.018,301.956 	"/>
</g>
</svg>