<svg xmlns="http://www.w3.org/2000/svg" xml:space="preserve" viewBox="0 0 512 512">
  <path fill="#b6ded0" d="M501.41 105.796c-10.653-22.2-31.064-42.205-58.549-58.55C396.59 19.516 330.153 2.114 256.478 2.114c-139.705 0-253.307 62.533-253.307 139.46 0 16.508 5.205 32.283 14.8 47.002 12.035 18.46 30.982 35.13 55.134 49.035 20.899 12.116 45.701 22.118 73.187 29.519 22.688 6.017 47.246 10.245 73.105 12.278 12.116 1.058 24.477 1.546 37.081 1.546 12.279 0 24.314-.487 36.105-1.464 25.778-1.952 50.418-6.18 73.105-12.116 27.486-7.318 52.288-17.238 73.187-29.193 31.307-17.808 53.996-40.171 64.486-65.135 4.229-10.084 6.505-20.655 6.505-31.471.001-12.361-2.927-24.396-8.456-35.779z"/>
  <path fill="#58595a" d="M510.924 141.006c0 5.692-.65 11.385-1.789 16.914-.081.081-.081.163-.081.244-6.912 31.307-32.365 59.526-70.178 81.074-20.98 11.954-45.701 21.874-73.187 29.113-22.688 6.017-47.246 10.246-73.105 12.198-11.791.975-23.826 1.463-36.105 1.463-12.604 0-24.965-.488-37.081-1.544-25.859-2.033-50.418-6.262-73.105-12.361-27.486-7.4-52.288-17.402-73.187-29.437-30.169-17.402-52.369-39.115-63.266-63.185-5.042-11.059-7.725-22.607-7.725-34.479C2.114 63.266 116.204 0 256.478 0c70.909 0 135.07 16.182 181.259 42.122 32.04 18.053 55.459 40.904 66.356 66.356 4.473 10.409 6.831 21.306 6.831 32.528z"/>
  <path fill="#b6ded0" stroke="#58595a" stroke-miterlimit="10" stroke-width=".26" d="M256.492 260.93c-64.334 0-124.566-13.694-169.598-38.561-41.072-22.681-63.691-51.376-63.691-80.805 0-29.429 22.619-58.126 63.691-80.807 45.032-24.867 105.264-38.561 169.598-38.561 64.336 0 124.568 13.694 169.6 38.561 41.07 22.681 63.689 51.378 63.689 80.807 0 29.429-22.619 58.126-63.689 80.805-45.032 24.867-105.263 38.561-169.6 38.561z"/>
  <g fill="#fff" opacity=".2">
    <path d="M359.672 181.747c-.814.65-1.545 1.22-2.439 1.789-16.996 12.604-42.042 20.492-70.584 20.492-39.44 0-73.024-14.8-89.776-35.699-.488-.651-.976-1.22-1.464-1.87-.081 0-.081 0 0-.081-.488-.651-.976-1.301-1.382-1.952-4.554-6.669-7.319-13.742-8.132-21.225-.163-1.219-.326-2.52-.244-3.822a16.689 16.689 0 0 1 0-2.846 39.155 39.155 0 0 1 1.952-10.652 52.93 52.93 0 0 1 1.383-3.822c3.009-6.994 7.806-13.499 14.149-19.111 1.464-1.382 3.09-2.683 4.717-3.903 17.321-13.336 43.261-21.549 71.804-21.549 26.103 0 50.499 6.748 68.714 17.808l-4.066-31.227c-.894-.325-1.789-.569-2.764-.893-19.192-6.099-40.741-9.596-63.185-9.596-50.336 0-95.631 17.971-119.132 45.457a67.389 67.389 0 0 0-3.171 3.903c-4.554 5.936-8.051 12.361-10.328 19.111a29.912 29.912 0 0 0-1.22 3.822c-1.057 3.415-1.707 6.993-2.033 10.652-.081.976-.162 1.871-.081 2.846-.162 1.301-.244 2.521-.162 3.822.081 7.238 1.545 14.312 4.147 21.225.407 1.3.976 2.602 1.626 3.903 2.359 5.448 5.53 10.816 9.433 15.857 23.663 30.902 72.536 53.101 131.085 53.101 28.624 0 54.809-5.529 76.439-15.044l-5.286-40.496z"/>
    <path d="M286.69 125.912H107.795l15.397-22.963h174.47zM269.372 168.29H102.174l16.228-25.079h162.877z"/>
  </g>
  <g fill="#58595a">
    <path d="m357.232 183.535-.732-5.693c-17.077 13.581-43.099 22.281-73.024 22.281-36.919 0-68.796-12.928-86.442-31.795a17.918 17.918 0 0 1-1.626-1.87c-.081 0-.081 0 0-.081a18.286 18.286 0 0 1-1.708-1.952c-5.285-6.587-8.864-13.742-10.409-21.225-.244-1.3-.488-2.52-.569-3.822-.244-2.196-.325-4.472-.244-6.749.081-2.276.407-4.553.976-6.749.162-1.301.569-2.521.976-3.822 2.195-6.913 6.18-13.337 11.628-19.111 1.219-1.382 2.521-2.602 3.903-3.903 17.158-15.45 45.294-25.371 76.521-25.371 26.184 0 50.499 6.749 68.714 17.728l-3.659-28.217-.407-3.01c-19.923-6.668-42.448-10.409-65.949-10.409-52.694 0-99.778 19.599-122.303 49.28-.894 1.301-1.871 2.521-2.684 3.903-4.066 6.018-7.075 12.361-8.945 19.111-.326 1.219-.651 2.52-.895 3.822-.488 2.196-.813 4.473-1.057 6.749-.244 2.277-.325 4.472-.244 6.749 0 1.301.081 2.603.163 3.822.569 7.32 2.521 14.393 5.611 21.225.488 1.3 1.138 2.602 1.87 3.903 2.765 5.529 6.424 10.816 10.734 15.857 24.639 28.868 71.885 49.198 127.914 49.198 28.624 0 54.809-5.529 76.44-15.044l-4.553-34.805z"/>
    <path d="M283.523 122.041H104.628l15.397-22.963h174.47zM266.205 164.42H99.008l16.227-25.079h162.877z"/>
  </g>
  <path fill="#646363" d="M73.105 235.091v80.911a239.811 239.811 0 0 1-7.725-4.553c-25.941-15.857-45.376-34.966-56.11-56.11C3.252 243.386 0 230.781 0 217.771v-80.912c0 13.418 3.415 26.347 9.839 38.626 2.359 4.472 5.042 8.782 8.132 13.092 12.604 17.484 31.552 33.26 55.134 46.514z"/>
  <path fill="#bcdcd7" d="M73.126 235.085v80.904c21.005 11.774 45.736 21.536 73.146 28.7v-80.904c-27.41-7.165-52.141-16.926-73.146-28.7z"/>
  <path fill="#646363" d="M146.272 263.784v80.904c22.745 5.945 47.329 10.098 73.145 12.133v-80.904c-25.816-2.035-50.4-6.188-73.145-12.133z"/>
  <path fill="#bcdcd7" d="M255.99 277.357c-12.416 0-24.623-.498-36.573-1.44v80.904a465.456 465.456 0 0 0 73.146 0v-80.904a464.973 464.973 0 0 1-36.573 1.44z"/>
  <path fill="#646363" d="M292.563 275.918v80.904c25.816-2.035 50.4-6.188 73.146-12.133v-80.904c-22.746 5.944-47.33 10.097-73.146 12.133z"/>
  <path fill="#bcdcd7" d="M365.709 344.689c27.409-7.164 52.141-16.925 73.146-28.699v-80.904c-21.005 11.774-45.736 21.536-73.146 28.7v80.903z"/>
  <path fill="#646363" d="M438.854 235.085v80.904C484.073 290.642 512 255.97 512 217.782v-80.904c0 38.188-27.927 72.86-73.146 98.207z"/>
  <path fill="#040000" d="M509.143 157.868c1.133-5.513 1.781-11.187 1.781-16.862 0-11.222-2.358-22.119-6.831-32.527-10.897-25.453-34.316-48.304-66.356-66.356C391.548 16.182 327.388 0 256.479 0c-.161 0-.319.007-.478.007v155.218a.754.754 0 0 1 .038-.11l-.038.116v203.031c12.412 0 24.617-.498 36.564-1.44 25.815-2.036 50.399-6.188 73.145-12.133 27.409-7.164 52.14-16.925 73.145-28.7C484.073 290.642 512 255.971 512 217.781v-80.904c0 7.133-.978 14.142-2.857 20.991zm-.112.372c.006-.026.018-.05.023-.075 0-.053.031-.105.053-.157-.023.077-.054.153-.076.232z" opacity=".06"/>
</svg>