<svg xmlns="http://www.w3.org/2000/svg" xml:space="preserve" viewBox="0 0 511.999 511.999">
  <path d="m464.001 504.001-52.047-48-52.047 48-52.011-48-51.966 48-51.994-48-51.981 48-51.979-48-51.978 48V215.999c0-114.875 93.125-208.001 208.001-208.001S464.001 101.123 464.001 216v288.001z" style="fill:#ffa05a"/>
  <path d="M287.991 10.448a209.578 209.578 0 0 0-31.993-2.449c-114.874-.001-208 93.124-208 208.001v288.002l51.98-48.001 12.005 11.086V216c0-103.997 76.323-190.163 176.008-205.552z" style="fill:#f08c46"/>
  <circle cx="167.97" cy="224.068" r="39.991" style="fill:#fff"/>
  <circle cx="342.93" cy="224.068" r="39.991" style="fill:#fff"/>
  <circle cx="175.969" cy="224.068" r="20.995" style="fill:#82b9ff"/>
  <circle cx="350.928" cy="224.068" r="20.995" style="fill:#82b9ff"/>
  <path d="M470.513 508.634a7.581 7.581 0 0 0 .428-.669c.064-.112.125-.226.183-.341a7.805 7.805 0 0 0 .805-2.619 8.012 8.012 0 0 0 .06-.802c.002-.068.01-.135.01-.203V215.999c0-57.696-22.468-111.937-63.264-152.734C367.937 22.468 313.696 0 256 0S144.062 22.468 103.264 63.264C62.468 104.062 40 158.303 40 215.999v288.002c0 .07.009.137.011.206a8.025 8.025 0 0 0 .122 1.211 7.377 7.377 0 0 0 .174.757 7.982 7.982 0 0 0 .249.74 7.419 7.419 0 0 0 .32.711 7.552 7.552 0 0 0 .615 1.013 7.483 7.483 0 0 0 .502.632c.046.052.085.107.132.158.033.036.069.065.103.1.112.117.228.228.347.338.085.079.169.158.256.233.114.097.234.188.354.278.097.073.192.149.291.218.121.083.248.158.373.234.102.062.202.129.307.186.147.081.3.151.453.222.087.041.171.087.259.125.727.31 1.509.516 2.327.598.174.018.348.02.522.026.095.003.188.014.284.014h.002c.258 0 .515-.014.772-.039.096-.009.189-.026.284-.039.158-.021.316-.042.473-.072.112-.022.221-.05.331-.077.137-.033.274-.065.409-.105.113-.034.223-.072.334-.111.13-.045.259-.09.387-.142.109-.044.215-.092.321-.14.125-.057.249-.115.372-.179.105-.054.207-.113.309-.171a7.158 7.158 0 0 0 .652-.421 8.65 8.65 0 0 0 .311-.232 8.11 8.11 0 0 0 .302-.254c.055-.048.114-.091.168-.141l46.554-42.99 46.553 42.99a7.999 7.999 0 0 0 10.852 0l46.555-42.99 46.567 42.99a7.997 7.997 0 0 0 10.852-.001l46.541-42.989 46.584 42.992a8 8 0 0 0 10.847.002l46.624-42.999 46.624 42.999c.052.048.107.087.16.133a7.929 7.929 0 0 0 5.051 1.975c.071.002.14.011.212.011.054 0 .105-.007.159-.008.138-.003.276-.011.414-.021.13-.009.26-.019.389-.034.123-.015.245-.036.368-.056.139-.023.277-.046.414-.077.112-.025.223-.056.334-.086.14-.038.28-.075.417-.12.111-.036.22-.079.33-.121.131-.049.261-.098.389-.154.116-.051.229-.108.342-.165.116-.058.233-.115.347-.178.116-.065.228-.136.342-.207.107-.067.214-.133.317-.205.108-.075.213-.157.318-.238.104-.081.208-.161.308-.246.094-.081.186-.166.277-.252.104-.098.207-.197.306-.3.036-.037.075-.07.111-.108.047-.051.087-.107.133-.16.095-.108.187-.218.276-.331.071-.1.146-.199.218-.3zm-63.982-58.513-46.622 42.997-46.588-42.995a7.999 7.999 0 0 0-10.851.002l-46.54 42.989-46.567-42.99a7.998 7.998 0 0 0-10.851 0l-46.554 42.99-46.553-42.99a7.996 7.996 0 0 0-10.851 0l-38.555 35.605v-269.73c0-110.281 89.721-200.003 200.004-200.003s200.003 89.721 200.003 200.003v269.745l-38.626-35.623a8.005 8.005 0 0 0-10.849 0zM211.979 204.75a47.67 47.67 0 0 1 4.018 19.249c0 26.467-21.532 47.999-47.998 47.999-26.467 0-47.999-21.532-47.999-47.999 0-26.466 21.532-47.998 47.999-47.998a47.681 47.681 0 0 1 19.189 3.991 7.998 7.998 0 1 1-6.401 14.661 31.753 31.753 0 0 0-12.789-2.655c-17.646 0-32.003 14.356-32.003 32.002s14.356 32.003 32.003 32.003C185.644 256.003 200 241.647 200 224c0-4.464-.899-8.781-2.673-12.829a7.998 7.998 0 0 1 4.116-10.536 7.997 7.997 0 0 1 10.536 4.115zm176.001 0a47.67 47.67 0 0 1 4.018 19.249c0 26.467-21.532 47.999-47.998 47.999-26.467 0-47.999-21.532-47.999-47.999 0-26.466 21.532-47.998 47.999-47.998a47.681 47.681 0 0 1 19.189 3.991 7.998 7.998 0 1 1-6.401 14.661 31.753 31.753 0 0 0-12.789-2.655c-17.646 0-32.003 14.356-32.003 32.002s14.356 32.003 32.003 32.003c17.646 0 32.002-14.356 32.002-32.003 0-4.464-.899-8.781-2.673-12.829a7.998 7.998 0 0 1 4.116-10.536 7.997 7.997 0 0 1 10.536 4.115z"/>
</svg>
